<svg width="35" height="35" viewBox="0 0 35 35" fill="#000000" xmlns="http://www.w3.org/2000/svg">
<path d="M19.2858 4.24507L17.4999 7.18088L15.712 4.24497L15.5819 4.03146L15.3684 4.16147L13.5003 5.29897L13.2868 5.42895L13.4167 5.64246L15.9255 9.76499L4.71355 28.1875H2.1875H1.9375V28.4375V30.625V30.875H2.1875H32.8125H33.0625V30.625V28.4375V28.1875H32.8125H30.2864L19.0724 9.76498L21.5811 5.64246L21.711 5.42895L21.4975 5.29897L19.6294 4.16147L19.4158 4.0314L19.2858 4.24507ZM16.1562 19.6875V28.1875H7.86043L17.5 12.3481L27.1396 28.1875H18.8438V19.6875V19.4375H18.5938H16.4062H16.1562V19.6875Z" />
</svg>
