<svg width="100" height="99" viewBox="0 0 100 99" fill="none" xmlns="http://www.w3.org/2000/svg">
<path d="M93.2725 39.9474C93.2725 44.5093 89.5767 48.2052 85.0148 48.2052C84.415 48.2052 83.8304 48.1424 83.2674 48.019C79.5456 47.22 76.757 43.9096 76.757 39.9474C76.757 39.025 76.9085 38.1373 77.1856 37.3102C78.2877 34.0431 81.3751 31.6896 85.0148 31.6896C89.5767 31.6896 93.2725 35.3877 93.2725 39.9474Z" fill="white"/>
<path d="M90.3954 36.7468C90.3954 37.6692 89.6476 38.417 88.7251 38.417C87.8027 38.417 87.0549 37.6692 87.0549 36.7468C87.0549 35.8243 87.8027 35.0765 88.7251 35.0765C89.6476 35.0765 90.3954 35.8243 90.3954 36.7468Z" fill="white"/>
<path d="M90.766 66.4966C88.4904 66.6763 85.994 66.3147 83.8809 66.0159C65.8228 39.2373 51.0232 22.7283 28.1764 4.38767C28.9731 3.99797 29.7829 3.62986 30.6035 3.28127C30.9846 3.11893 31.3699 2.96086 31.7576 2.80711C34.845 1.58166 37.887 0.771912 40.9009 0.349693C57.4756 8.45308 71.1509 17.0963 77.1841 37.3106C76.907 38.1377 76.7554 39.0254 76.7554 39.9478C76.7554 43.91 79.5441 47.2204 83.266 48.0193C92.3447 55.9319 93.0551 59.6615 90.766 66.4966Z" fill="white"/>
<path d="M49.3989 71.5189C38.5797 66.1689 31.8613 59.6822 26.3619 49.9369C25.1516 47.7913 23.1792 45.0675 21.1288 48.1312C18.312 52.3337 20.4706 58.9309 22.1702 63.1269C22.4236 63.7547 22.6942 64.3718 22.9799 64.9803C16.9604 61.3678 9.58369 52.5042 0.806885 40.0704C2.05402 33.2784 4.70846 26.9671 8.46712 21.433C9.51074 19.8936 10.6409 18.417 11.8469 17.0075C27.202 32.8691 46.3304 48.6696 49.3989 71.5189Z" fill="white"/>
<path d="M59.5069 97.9532C56.6814 98.4317 53.7737 98.6806 50.8074 98.6806C48.2049 98.6806 45.6501 98.4901 43.1537 98.1177C36.116 90.2458 31.141 81.3823 30.9315 76.3733C37.8318 83.4164 47.1245 88.1603 56.8677 89.8599C62.2634 93.0938 61.8045 95.3714 59.5069 97.9532Z" fill="white"/>
<path d="M37.0345 96.8322C23.9485 93.2337 12.9995 84.6295 6.48022 73.2648C2.35353 66.0722 0 57.7754 0 48.9374C0 48.2705 0.0130056 47.6058 0.0411867 46.9433C13.5357 53.7645 32.4969 80.6955 37.0345 96.8322Z" fill="white"/>
<path d="M56.5449 74.1106C56.4562 74.0954 56.3653 74.0803 56.2765 74.0652C56.27 74.0652 56.2678 74.0652 56.2656 74.063C54.6592 73.6386 53.0461 73.2294 51.5565 72.5474C50.8182 72.2096 50.0993 71.8675 49.3979 71.5189C39.9492 51.2706 27.201 32.8692 11.8458 17.0075C11.9151 16.9252 11.9866 16.8451 12.058 16.7649C29.7522 24.3217 48.0881 53.3196 57.7035 73.1822C57.9591 73.7102 58.2325 74.2376 56.5449 74.1106Z" fill="white"/>
<path d="M64.7737 96.7749C63.0546 97.2578 61.2965 97.6518 59.506 97.9528C58.6832 95.2291 57.802 92.5313 56.8667 89.8595C58.8629 90.2081 60.8787 90.4311 62.8944 90.5156C66.2908 93.3143 67.6504 94.5891 64.7737 96.7749Z" fill="white"/>
<path d="M43.1523 98.1179C41.0694 97.8126 39.0277 97.3796 37.0358 96.8318H37.0337C27.3382 78.3005 14.8151 61.4795 0.0402832 46.9429C0.133414 44.6067 0.391045 42.3117 0.804589 40.0708C8.86536 47.7375 16.2852 56.071 22.9776 64.9806V64.9827C24.9631 69.2372 27.6803 73.0609 30.9302 76.3735C35.438 83.3344 39.5257 90.5941 43.1523 98.1179Z" fill="white"/>
<path d="M83.8821 66.0151C83.4534 65.9545 83.0398 65.8961 82.648 65.8463C78.2874 65.2855 73.9918 64.244 69.8607 62.7393C65.3984 61.1176 61.1915 58.9784 57.3138 56.3997C57.3138 56.3997 57.3095 56.3976 57.303 56.3911C57.2943 56.3868 57.2834 56.3781 57.2704 56.3695C57.225 56.3392 57.1514 56.2872 57.0497 56.2201C57.0171 56.1963 56.9804 56.1724 56.9414 56.1464C56.9002 56.1205 56.8591 56.0923 56.8136 56.062C55.4843 55.1765 51.6477 52.4831 50.119 54.0571C48.1769 56.0555 51.6844 60.9422 53.0377 62.4621C55.0793 64.7528 57.6731 66.6213 59.7907 68.7518C60.8646 69.8322 63.034 72.1598 62.8716 73.855C62.7612 74.9853 61.4903 74.8207 60.2951 74.7146C59.0329 74.6063 57.7923 74.3292 56.5452 74.1105C46.3625 51.6625 31.0312 32.0442 12.0582 16.7649C13.1344 15.52 14.2754 14.3291 15.4705 13.1968C19.201 9.65897 23.4836 6.67754 28.1776 4.38687C53.1351 17.8475 72.9417 39.6287 83.8821 66.0151Z" fill="white"/>
<path d="M80.1173 89.5717C75.5099 92.7631 70.3374 95.2227 64.7752 96.7751C64.1928 94.6705 63.5649 92.5834 62.8959 90.5157C63.5411 90.5439 64.1884 90.559 64.8337 90.559C68.0402 90.559 71.1688 90.2429 74.1935 89.6388C75.9905 89.2794 77.7487 88.8204 79.4634 88.2683C80.2711 88.0063 80.8145 89.0889 80.1173 89.5717Z" fill="white"/>
<path d="M100.001 46.3244C100.001 49.7605 99.6411 53.1987 98.9245 56.559C98.2381 59.7677 97.7271 63.1258 94.9839 65.1329C93.819 65.9838 92.3468 66.3714 90.7662 66.4969C88.7569 60.0968 86.2432 53.9219 83.2662 48.0197C83.8292 48.1431 84.4137 48.2059 85.0134 48.2059C89.5754 48.2059 93.2713 44.5101 93.2713 39.9481C93.2713 35.3883 89.5754 31.6903 85.0134 31.6903C81.3739 31.6903 78.2864 34.0438 77.1844 37.311C67.8267 22.5837 55.44 9.97188 40.9011 0.35006C48.3946 -0.702225 55.7258 0.646713 63.2106 4.01343C68.3204 6.31285 72.9515 9.54317 76.4439 13.9687C76.983 14.6529 79.8388 17.8919 79.5725 18.7233L81.008 14.2523C81.6792 12.1608 84.3033 11.4723 85.9076 12.9727C88.783 15.664 91.3357 18.6844 93.5029 21.9688C97.6406 29.1679 100.001 37.4755 100.001 46.3244Z" fill="white"/>
</svg>
