<svg width="35" height="35" viewBox="0 0 35 35" fill="#000000" xmlns="http://www.w3.org/2000/svg">
<path d="M20.4166 11.6667H6.80547C6.54762 11.6667 6.30034 11.5642 6.11801 11.3819C5.93568 11.1996 5.83325 10.9523 5.83325 10.6944V6.80555C5.83325 6.5477 5.93568 6.30041 6.11801 6.11809C6.30034 5.93576 6.54762 5.83333 6.80547 5.83333H20.4166C20.6744 5.83333 20.9217 5.93576 21.1041 6.11809C21.2864 6.30041 21.3888 6.5477 21.3888 6.80555V10.6944C21.3888 10.9523 21.2864 11.1996 21.1041 11.3819C20.9217 11.5642 20.6744 11.6667 20.4166 11.6667ZM7.7777 9.72222H19.4444V7.71944H7.7777V9.72222Z"/>
<path d="M20.4166 13.6889H6.80547C6.54762 13.6889 6.30034 13.7913 6.11801 13.9736C5.93568 14.156 5.83325 14.4033 5.83325 14.6611V18.4722C5.83325 18.7301 5.93568 18.9774 6.11801 19.1597C6.30034 19.342 6.54762 19.4444 6.80547 19.4444H17.8499L21.3888 15.8472V14.6611C21.3888 14.4033 21.2864 14.156 21.1041 13.9736C20.9217 13.7913 20.6744 13.6889 20.4166 13.6889ZM19.4444 17.5H7.7777V15.5556H19.4444V17.5Z"/>
<path d="M10.7527 30.6347V30.5764L11.0638 29.225H3.88878V3.8889H23.3332V13.8542L25.2777 12.0167V2.91668C25.2777 2.65883 25.1752 2.41154 24.9929 2.22922C24.8106 2.04689 24.5633 1.94446 24.3055 1.94446H2.91656C2.65871 1.94446 2.41142 2.04689 2.22909 2.22922C2.04677 2.41154 1.94434 2.65883 1.94434 2.91668V30.1389C1.94434 30.3968 2.04677 30.644 2.22909 30.8264C2.41142 31.0087 2.65871 31.1111 2.91656 31.1111H10.6943C10.7023 30.9511 10.7218 30.7919 10.7527 30.6347Z"/>
<path d="M21.3888 18.6375L20.6305 19.4055C20.8186 19.3668 20.9911 19.2731 21.126 19.1364C21.261 18.9997 21.3524 18.8261 21.3888 18.6375Z"/>
<path d="M5.83325 26.1917C5.83325 26.4495 5.93568 26.6968 6.11801 26.8791C6.30034 27.0615 6.54762 27.1639 6.80547 27.1639H11.511L11.8027 25.9L11.9291 25.3653V25.3167H7.7777V23.3333H13.9416L15.886 21.3889H6.80547C6.54762 21.3889 6.30034 21.4913 6.11801 21.6737C5.93568 21.856 5.83325 22.1033 5.83325 22.3611V26.1917Z"/>
<path d="M32.5598 16.2069L29.2834 12.9305C29.138 12.7847 28.9653 12.6691 28.7751 12.5901C28.5849 12.5112 28.381 12.4706 28.1751 12.4706C27.9692 12.4706 27.7653 12.5112 27.5751 12.5901C27.3849 12.6691 27.2122 12.7847 27.0668 12.9305L13.7376 26.3375L12.639 31.0139C12.5978 31.2156 12.5969 31.4235 12.6363 31.6256C12.6756 31.8277 12.7544 32.0201 12.8682 32.1917C12.982 32.3632 13.1285 32.5107 13.2994 32.6256C13.4703 32.7405 13.6621 32.8205 13.864 32.8611C13.9642 32.8712 14.0652 32.8712 14.1654 32.8611C14.2845 32.8805 14.406 32.8805 14.5251 32.8611L19.2404 31.8208L32.5598 18.4722C32.7053 18.3276 32.8208 18.1557 32.8996 17.9663C32.9784 17.777 33.019 17.5739 33.019 17.3687C33.019 17.1636 32.9784 16.9605 32.8996 16.7711C32.8208 16.5818 32.7053 16.4098 32.5598 16.2653V16.2069ZM18.2487 30.0514L14.6904 30.8389L15.5556 27.3097L25.5501 17.2083L28.2918 19.95L18.2487 30.0514ZM29.3904 18.8514L26.6487 16.1097L28.1945 14.5833L30.9556 17.3444L29.3904 18.8514Z"/>
</svg>
