<svg width="40" height="40" viewBox="0 0 40 40" fill="#000000" xmlns="http://www.w3.org/2000/svg">
<path d="M36.9718 19.7264L21.8781 4.64048L20.8664 3.62876C20.6359 3.39976 20.3241 3.27124 19.9992 3.27124C19.6743 3.27124 19.3625 3.39976 19.132 3.62876L3.02653 19.7264C2.79032 19.9617 2.60364 20.2419 2.47751 20.5505C2.35138 20.8592 2.28836 21.1899 2.29215 21.5233C2.30778 22.8983 3.45231 23.9959 4.82731 23.9959H6.48747V36.7186H33.5109V23.9959H35.2062C35.8742 23.9959 36.5031 23.7342 36.9757 23.2616C37.2085 23.0296 37.3929 22.7537 37.5183 22.45C37.6437 22.1462 37.7075 21.8206 37.7062 21.492C37.7062 20.828 37.4445 20.1991 36.9718 19.7264ZM22.1867 33.9061H17.8117V25.9374H22.1867V33.9061ZM30.6984 21.1834V33.9061H24.6867V24.9999C24.6867 24.1366 23.9875 23.4374 23.1242 23.4374H16.8742C16.0109 23.4374 15.3117 24.1366 15.3117 24.9999V33.9061H9.29997V21.1834H5.54997L20.0031 6.74204L20.9054 7.64439L34.4523 21.1834H30.6984Z"/>
</svg>
