<svg width="20" height="20" viewBox="0 0 20 20" fill="none" xmlns="http://www.w3.org/2000/svg">
<path d="M10.625 13.75V8.75H8.125V10H9.375V13.75H7.5V15H12.5V13.75H10.625Z" fill="white"/>
<path d="M10 5C9.81458 5 9.63332 5.05498 9.47915 5.158C9.32498 5.26101 9.20482 5.40743 9.13386 5.57873C9.06291 5.75004 9.04434 5.93854 9.08051 6.1204C9.11669 6.30225 9.20598 6.4693 9.33709 6.60041C9.4682 6.73152 9.63525 6.82081 9.8171 6.85699C9.99896 6.89316 10.1875 6.87459 10.3588 6.80364C10.5301 6.73268 10.6765 6.61252 10.7795 6.45835C10.8825 6.30418 10.9375 6.12292 10.9375 5.9375C10.9375 5.68886 10.8387 5.4504 10.6629 5.27459C10.4871 5.09877 10.2486 5 10 5Z" fill="white"/>
<path d="M16.25 17.5H3.75C3.41858 17.4997 3.10083 17.3679 2.86648 17.1335C2.63213 16.8992 2.50033 16.5814 2.5 16.25V3.75C2.50033 3.41858 2.63213 3.10083 2.86648 2.86648C3.10083 2.63213 3.41858 2.50033 3.75 2.5H16.25C16.5814 2.50033 16.8992 2.63213 17.1335 2.86648C17.3679 3.10083 17.4997 3.41858 17.5 3.75V16.25C17.4997 16.5814 17.3679 16.8992 17.1335 17.1335C16.8992 17.3679 16.5814 17.4997 16.25 17.5ZM3.75 3.75V16.25H16.25V3.75H3.75Z" fill="white"/>
</svg>
