<svg width="35" height="35" viewBox="0 0 35 35" fill="none" xmlns="http://www.w3.org/2000/svg">
<path d="M5.83331 14.5833V26.25H29.1666V14.5833L17.5 18.9583L5.83331 14.5833ZM5.83331 8.74998V11.6666L17.5 16.0416L29.1666 11.6666V8.74998H5.83331ZM5.83331 5.83331H29.1666C29.9402 5.83331 30.6821 6.1406 31.229 6.68758C31.776 7.23457 32.0833 7.97643 32.0833 8.74998V26.25C32.0833 27.0235 31.776 27.7654 31.229 28.3124C30.6821 28.8594 29.9402 29.1666 29.1666 29.1666H5.83331C5.05976 29.1666 4.31789 28.8594 3.77091 28.3124C3.22393 27.7654 2.91664 27.0235 2.91664 26.25V8.74998C2.91664 7.97643 3.22393 7.23457 3.77091 6.68758C4.31789 6.1406 5.05976 5.83331 5.83331 5.83331Z" fill="white"/>
</svg>
