<svg width="150" height="55" viewBox="0 0 150 55" fill="none" xmlns="http://www.w3.org/2000/svg">
<path fill-rule="evenodd" clip-rule="evenodd" d="M85.7316 11.6361C88.448 9.23109 91.9528 7.8758 95.6337 7.88088C103.854 7.89184 110.566 14.6204 110.555 22.8418L110.529 42.7311L100.346 42.7177L100.373 22.8278C100.376 20.2273 98.2208 18.0668 95.6202 18.0632C93.0195 18.0598 90.8593 20.2149 90.8557 22.8152L90.8289 42.7051L80.5518 42.6911L80.5783 22.8017C80.5814 20.2012 78.4266 18.0405 75.8265 18.037C73.2254 18.0335 71.0649 20.1883 71.0614 22.789L71.035 42.6785L60.8525 42.6648L60.879 22.7754C60.8897 14.5543 67.6186 7.84346 75.8396 7.85442C79.5208 7.85937 83.0218 9.22418 85.7316 11.6361Z" fill="#32B561"/>
<path d="M135.08 7.88089C131.399 7.8758 127.894 9.23122 125.178 11.6361C122.468 9.22418 118.967 7.85937 115.286 7.85455C111.517 7.84946 108.065 9.25848 105.428 11.5767C108.427 14.1987 110.376 17.9943 110.543 22.2286C110.829 19.886 112.861 18.0338 115.273 18.037C117.873 18.0405 120.028 20.2012 120.024 22.8017L119.998 42.6911L130.275 42.7051L130.302 22.8152C130.305 20.2149 132.466 18.0598 135.067 18.0634C137.667 18.0669 139.822 20.2273 139.819 22.8278L139.792 42.7177L149.975 42.7311L150.001 22.8418C150.012 14.6204 143.301 7.89184 135.08 7.88089Z" fill="white"/>
<path d="M63.4075 50.0254H65.5708L64.7362 47.0934C64.6922 46.9396 64.6264 46.8738 64.4946 46.8738C64.3738 46.8738 64.297 46.9396 64.253 47.0934L63.4075 50.0254ZM62.8804 46.6212C63.133 45.8196 63.7918 45.4353 64.4837 45.4353C65.1865 45.4353 65.8453 45.8196 66.0979 46.6212L68.0525 52.9682H66.4163L65.9881 51.4529L62.9902 51.4639L62.562 52.9682H60.9258L62.8804 46.6212Z" fill="white"/>
<path d="M68.4697 49.2786C68.4697 47.1372 70.1499 45.4352 72.3022 45.4352C73.5869 45.4352 74.8168 46.116 75.3659 47.269L74.0591 48.0048C73.6967 47.3679 73.1257 46.9615 72.2362 46.9615C71.0063 46.9615 70.117 47.9388 70.117 49.2786C70.117 50.6182 70.9954 51.5954 72.2362 51.5954C73.1257 51.5954 73.7188 51.1892 74.0591 50.5523L75.3659 51.288C74.8168 52.441 73.5869 53.1218 72.3022 53.1218C70.1499 53.1218 68.4697 51.4198 68.4697 49.2786Z" fill="white"/>
<path d="M78.22 50.0254H80.3833L79.5487 47.0934C79.5047 46.9396 79.4389 46.8738 79.3071 46.8738C79.1863 46.8738 79.1095 46.9396 79.0655 47.0934L78.22 50.0254ZM77.6929 46.6212C77.9455 45.8196 78.6043 45.4353 79.2962 45.4353C79.999 45.4353 80.6578 45.8196 80.9102 46.6212L82.865 52.9682H81.2288L80.8006 51.4529L77.8027 51.4639L77.3745 52.9682H75.7383L77.6929 46.6212Z" fill="white"/>
<path d="M83.6572 52.9682L84.6565 46.6102C84.7882 45.8415 85.3263 45.4353 86.0731 45.4353C86.7319 45.4353 87.2919 45.7207 87.4676 46.4344L88.7084 51.0464C88.7084 51.0796 88.7195 51.0796 88.7195 51.0796C88.7305 51.0796 88.7414 51.0796 88.7414 51.0464L89.9603 46.4674C90.1469 45.7537 90.718 45.4353 91.3878 45.4353C92.1236 45.4353 92.6507 45.8526 92.7605 46.6431L93.6719 52.9682H92.0468L91.3329 47.1703C91.3329 47.1154 91.322 47.0824 91.278 47.0824C91.2452 47.0824 91.2231 47.1043 91.2121 47.1483L89.8396 52.0457C89.6858 52.6059 89.2465 52.8803 88.7195 52.8803C88.2143 52.8803 87.7421 52.6169 87.6104 52.0787L86.2377 47.1483C86.2268 47.0934 86.2048 47.0824 86.1828 47.0824C86.1499 47.0824 86.1169 47.1043 86.1169 47.1592L85.2823 52.9682H83.6572Z" fill="white"/>
<path d="M96.7799 47.0605V49.5311H97.8232C98.8774 49.5311 99.5143 49.1249 99.5143 48.2684C99.5143 47.4558 98.8774 47.0605 97.8232 47.0605H96.7799ZM95.1768 52.9682V45.5781H97.7792C99.8767 45.5781 101.161 46.5553 101.161 48.2684C101.161 50.0473 99.8986 51.0137 97.8671 51.0137H96.7799V52.9572L95.1768 52.9682Z" fill="white"/>
<path d="M104.224 50.0254H106.387L105.553 47.0934C105.509 46.9396 105.443 46.8738 105.311 46.8738C105.19 46.8738 105.113 46.9396 105.069 47.0934L104.224 50.0254ZM103.697 46.6212C103.949 45.8196 104.608 45.4353 105.3 45.4353C106.003 45.4353 106.662 45.8196 106.914 46.6212L108.869 52.9682H107.233L106.804 51.4529L103.807 51.4639L103.378 52.9682H101.742L103.697 46.6212Z" fill="white"/>
<path d="M109.661 52.9682L110.66 46.6102C110.792 45.8415 111.33 45.4353 112.077 45.4353C112.736 45.4353 113.296 45.7207 113.472 46.4344L114.712 51.0464C114.712 51.0796 114.723 51.0796 114.723 51.0796C114.734 51.0796 114.745 51.0796 114.745 51.0464L115.964 46.4674C116.151 45.7537 116.722 45.4353 117.392 45.4353C118.127 45.4353 118.654 45.8526 118.764 46.6431L119.676 52.9682H118.051L117.337 47.1703C117.337 47.1154 117.326 47.0824 117.282 47.0824C117.249 47.0824 117.227 47.1043 117.216 47.1483L115.843 52.0457C115.69 52.6059 115.25 52.8803 114.723 52.8803C114.218 52.8803 113.746 52.6169 113.614 52.0787L112.242 47.1483C112.231 47.0934 112.209 47.0824 112.187 47.0824C112.154 47.0824 112.121 47.1043 112.121 47.1592L111.286 52.9682H109.661Z" fill="white"/>
<path d="M122.486 52.9682C121.465 52.9682 121.069 52.4411 121.069 51.5956V46.9617C121.069 46.116 121.465 45.5779 122.486 45.5779H126.395V47.0166H122.673V48.5539H126.164V49.9924H122.673V51.5297H126.461V52.9682H122.486Z" fill="white"/>
<path d="M127.954 52.9682V46.5882C127.954 45.8526 128.492 45.4242 129.096 45.4242C129.579 45.4242 129.964 45.6 130.205 46.0063L133.126 51.0136V45.578H134.641V51.958C134.641 52.6937 134.104 53.111 133.521 53.111C133.049 53.111 132.643 52.9462 132.401 52.54L129.48 47.4997V52.9682H127.954Z" fill="white"/>
<path d="M141.67 47.0605H139.495V52.9682H137.892V47.0605H135.718V45.5781H141.67V47.0605Z" fill="white"/>
<path d="M148.258 49.2786C148.258 47.9718 147.303 46.9616 146.062 46.9616C144.832 46.9616 143.866 47.9718 143.866 49.2786C143.866 50.5852 144.832 51.5955 146.062 51.5955C147.292 51.5955 148.258 50.5852 148.258 49.2786ZM142.219 49.2786C142.219 47.1043 143.877 45.4461 146.062 45.4461C148.258 45.4461 149.917 47.1043 149.917 49.2786C149.917 51.4638 148.247 53.111 146.062 53.111C143.877 53.111 142.219 51.4638 142.219 49.2786Z" fill="white"/>
<path d="M51.5537 22.0809C51.5537 24.6025 49.5108 26.6453 46.9893 26.6453C46.6579 26.6453 46.3347 26.6106 46.0234 26.5424C43.9663 26.1009 42.4248 24.2709 42.4248 22.0809C42.4248 21.571 42.5087 21.0805 42.6617 20.6233C43.271 18.8173 44.9776 17.5165 46.9893 17.5165C49.5108 17.5165 51.5537 19.5606 51.5537 22.0809Z" fill="white"/>
<path d="M49.9665 20.3116C49.9665 20.8215 49.5531 21.2349 49.0432 21.2349C48.5334 21.2349 48.1201 20.8215 48.1201 20.3116C48.1201 19.8017 48.5334 19.3883 49.0432 19.3883C49.5531 19.3883 49.9665 19.8017 49.9665 20.3116Z" fill="#273138"/>
<path d="M50.1702 36.7557C48.9124 36.8551 47.5325 36.6551 46.3645 36.4901C36.3831 21.6883 28.2026 12.5631 15.5742 2.42536C16.0146 2.20993 16.4621 2.0065 16.9158 1.81389C17.1264 1.72404 17.3394 1.63667 17.5536 1.55178C19.2602 0.874332 20.9417 0.426781 22.6076 0.193356C31.7691 4.67248 39.3281 9.44997 42.6629 20.6234C42.5097 21.0805 42.4259 21.5712 42.4259 22.081C42.4259 24.2711 43.9674 26.1009 46.0246 26.5426C51.0428 30.9161 51.4355 32.9776 50.1702 36.7557Z" fill="#00A651"/>
<path d="M27.3043 39.5316C21.3241 36.5744 17.6105 32.9889 14.5707 27.6022C13.9017 26.4163 12.8115 24.9108 11.6782 26.6041C10.1212 28.9271 11.3144 32.5736 12.2538 34.8929C12.3939 35.24 12.5434 35.5811 12.7013 35.9173C9.37408 33.9205 5.29661 29.0212 0.445312 22.1485C1.13463 18.3943 2.60194 14.9058 4.67954 11.8469C5.25631 10.996 5.88108 10.1798 6.54757 9.40063C15.0351 18.1681 25.6082 26.9018 27.3043 39.5316Z" fill="#FF6843"/>
<path d="M32.8925 54.1429C31.3308 54.4073 29.7234 54.5449 28.0838 54.5449C26.6453 54.5449 25.2332 54.4397 23.8534 54.2338C19.9633 49.8827 17.2135 44.9834 17.0977 42.2147C20.9117 46.1078 26.0482 48.7299 31.4336 49.6694C34.4161 51.4568 34.1625 52.7157 32.8925 54.1429Z" fill="#FF6843"/>
<path d="M20.4706 53.5234C13.2373 51.5343 7.1854 46.7785 3.58194 40.4967C1.30091 36.521 0 31.935 0 27.0498C0 26.6812 0.0071717 26.3138 0.0226898 25.9476C7.48181 29.718 17.9624 44.6039 20.4706 53.5234Z" fill="#F41C5A"/>
<path d="M31.255 40.9642C31.206 40.9559 31.1556 40.9475 31.1066 40.9391C31.103 40.9391 31.1018 40.9391 31.1006 40.9379C30.2127 40.7033 29.321 40.4772 28.4976 40.1002C28.0896 39.9134 27.6922 39.7243 27.3045 39.5317C22.0819 28.3395 15.0353 18.1683 6.54785 9.40081C6.58619 9.3553 6.6257 9.31109 6.66522 9.26676C16.4455 13.4437 26.5805 29.4721 31.8954 40.4511C32.0366 40.7429 32.1878 41.0344 31.255 40.9642Z" fill="#26306B"/>
<path d="M35.8032 53.4919C34.853 53.7588 33.8812 53.9766 32.8916 54.143C32.4367 52.6374 31.9497 51.1462 31.4326 49.6695C32.5361 49.8621 33.6503 49.9853 34.7644 50.032C36.6417 51.5791 37.3934 52.2837 35.8032 53.4919Z" fill="#26306B"/>
<path d="M23.8534 54.2344C22.702 54.0656 21.5735 53.8262 20.4725 53.5235H20.4713C15.1122 43.2804 8.19013 33.9827 0.0234375 25.9478C0.0749471 24.6564 0.217349 23.3878 0.445948 22.1492C4.90147 26.387 9.00281 30.9932 12.702 35.9179V35.9191C13.7993 38.2708 15.3013 40.3843 17.0976 42.2153C19.5893 46.0629 21.8488 50.0757 23.8534 54.2344Z" fill="#EF5233"/>
<path d="M46.3652 36.4894C46.1282 36.4559 45.8996 36.4236 45.683 36.396C43.2727 36.0861 40.8983 35.5105 38.615 34.6788C36.1484 33.7824 33.8231 32.6 31.6797 31.1745C31.6797 31.1745 31.6773 31.1734 31.6737 31.1698C31.6689 31.1674 31.663 31.1627 31.6557 31.1578C31.6307 31.141 31.59 31.1123 31.5336 31.0753C31.5158 31.0621 31.4954 31.049 31.4739 31.0346C31.4511 31.0203 31.4284 31.0046 31.4032 30.9879C30.6684 30.4984 28.5478 29.0097 27.7029 29.8798C26.6294 30.9843 28.5681 33.6853 29.3161 34.5255C30.4446 35.7918 31.8783 36.8246 33.0488 38.0021C33.6424 38.5994 34.8416 39.8858 34.7517 40.8229C34.6907 41.4476 33.9882 41.3566 33.3276 41.2979C32.6299 41.2382 31.9441 41.085 31.2548 40.9641C25.6265 28.556 17.1523 17.7123 6.66504 9.26664C7.25981 8.57849 7.89044 7.92034 8.55107 7.2944C10.6132 5.33886 12.9803 3.69094 15.5749 2.42472C29.37 9.86506 40.3179 21.9045 46.3652 36.4894Z" fill="#303982"/>
<path d="M44.2827 49.5103C41.736 51.2742 38.8769 52.6338 35.8023 53.4919C35.4805 52.3287 35.1334 51.175 34.7637 50.032C35.1202 50.0476 35.478 50.056 35.8347 50.056C37.6071 50.056 39.3364 49.8813 41.0083 49.5473C42.0016 49.3487 42.9734 49.095 43.9212 48.7898C44.3677 48.645 44.668 49.2434 44.2827 49.5103Z" fill="#303982"/>
<path d="M55.2752 25.6055C55.2752 27.5047 55.0766 29.4052 54.6804 31.2625C54.301 33.0362 54.0186 34.8923 52.5022 36.0017C51.8584 36.472 51.0446 36.6863 50.171 36.7557C49.0604 33.2181 47.6709 29.8049 46.0253 26.5426C46.3366 26.6108 46.6596 26.6454 46.9912 26.6454C49.5127 26.6454 51.5556 24.6025 51.5556 22.081C51.5556 19.5606 49.5127 17.5165 46.9912 17.5165C44.9794 17.5165 43.2729 18.8174 42.6636 20.6234C37.4913 12.483 30.6447 5.51188 22.6084 0.193478C26.7503 -0.388123 30.8026 0.357399 34.9398 2.2184C37.7641 3.48932 40.3241 5.27494 42.2544 7.72106C42.5524 8.09923 44.131 9.88955 43.9837 10.3492L44.7772 7.87781C45.1482 6.72177 46.5986 6.34126 47.4855 7.1705C49.0747 8.65815 50.4857 10.3276 51.6837 12.1431C53.9707 16.1223 55.2752 20.7143 55.2752 25.6055Z" fill="#32B561"/>
</svg>
