<svg width="35" height="35" viewBox="0 0 35 35" fill="#000000" xmlns="http://www.w3.org/2000/svg">
<path d="M16.0767 16.8233L14.5834 14.5833L11.6667 18.9583H24.7917L19.6876 11.6667L16.0767 16.8233Z"/>
<path d="M13.8586 13.1249C15.0692 13.1249 16.0505 12.1436 16.0505 10.9331C16.0505 9.72252 15.0692 8.74118 13.8586 8.74118C12.6481 8.74118 11.6667 9.72252 11.6667 10.9331C11.6667 12.1436 12.6481 13.1249 13.8586 13.1249Z"/>
<path d="M27.7083 2.91667H8.75C6.99125 2.91667 4.375 4.08188 4.375 7.29167V27.7083C4.375 30.9181 6.99125 32.0833 8.75 32.0833H30.625V29.1667H8.7675C8.09375 29.1492 7.29167 28.8838 7.29167 27.7083C7.29167 26.5329 8.09375 26.2675 8.7675 26.25H30.625V5.83334C30.625 4.2248 29.3169 2.91667 27.7083 2.91667ZM27.7083 23.3333H7.29167V7.29167C7.29167 6.11625 8.09375 5.85084 8.75 5.83334H27.7083V23.3333Z" />
</svg>
