<svg width="35" height="35" viewBox="0 0 35 35" fill="#000000" xmlns="http://www.w3.org/2000/svg">
<path d="M29.1667 8.75H24.7917V5.83334C24.7917 4.21459 23.4938 2.91667 21.8751 2.91667H13.1251C11.5063 2.91667 10.2084 4.21459 10.2084 5.83334V8.75H5.83341C4.21466 8.75 2.91675 10.0479 2.91675 11.6667V27.7083C2.91675 29.3271 4.21466 30.625 5.83341 30.625H29.1667C30.7855 30.625 32.0834 29.3271 32.0834 27.7083V11.6667C32.0834 10.0479 30.7855 8.75 29.1667 8.75ZM13.1251 5.83334H21.8751V8.75H13.1251V5.83334ZM29.1667 27.7083H5.83341V24.7917H29.1667V27.7083ZM29.1667 20.4167H5.83341V11.6667H10.2084V14.5833H13.1251V11.6667H21.8751V14.5833H24.7917V11.6667H29.1667V20.4167Z"/>
</svg>
