<svg width="20" height="20" viewBox="0 0 20 20" fill="none" xmlns="http://www.w3.org/2000/svg">
<g clip-path="url(#clip0_2:6826)">
<path d="M15 6.66663H15.8333C16.7174 6.66663 17.5652 7.01782 18.1904 7.64294C18.8155 8.26806 19.1667 9.1159 19.1667 9.99996C19.1667 10.884 18.8155 11.7319 18.1904 12.357C17.5652 12.9821 16.7174 13.3333 15.8333 13.3333H15" stroke="white" stroke-width="2" stroke-linecap="round" stroke-linejoin="round"/>
<path d="M1.66663 6.66663H15V14.1666C15 15.0507 14.6488 15.8985 14.0236 16.5236C13.3985 17.1488 12.5507 17.5 11.6666 17.5H4.99996C4.1159 17.5 3.26806 17.1488 2.64294 16.5236C2.01782 15.8985 1.66663 15.0507 1.66663 14.1666V6.66663Z" stroke="white" stroke-width="2" stroke-linecap="round" stroke-linejoin="round"/>
<path d="M5 0.833313V3.33331" stroke="white" stroke-width="2" stroke-linecap="round" stroke-linejoin="round"/>
<path d="M8.33325 0.833313V3.33331" stroke="white" stroke-width="2" stroke-linecap="round" stroke-linejoin="round"/>
<path d="M11.6666 0.833313V3.33331" stroke="white" stroke-width="2" stroke-linecap="round" stroke-linejoin="round"/>
</g>
<defs>
<clipPath id="clip0_2:6826">
<rect width="20" height="20" fill="white"/>
</clipPath>
</defs>
</svg>
