<svg width="14" height="18" viewBox="0 0 14 18" fill="none" xmlns="http://www.w3.org/2000/svg">
<path d="M13.25 0C13.4312 7.6429e-06 13.6063 0.0656426 13.7429 0.184767C13.8795 0.303891 13.9684 0.468446 13.993 0.648L14 0.75V16.75C13.9999 16.94 13.9278 17.1229 13.798 17.2618C13.6683 17.4006 13.4907 17.4851 13.3011 17.498C13.1115 17.511 12.9241 17.4515 12.7767 17.3316C12.6293 17.2117 12.5329 17.0402 12.507 16.852L12.5 16.75V11.75H10.25C10.0688 11.75 9.89366 11.6844 9.75707 11.5652C9.62048 11.4461 9.53165 11.2816 9.507 11.102L9.5 11V3.75C9.5 2.75544 9.89509 1.80161 10.5983 1.09835C11.3016 0.395088 12.2554 0 13.25 0ZM7.25 0C7.43124 7.6429e-06 7.60634 0.0656426 7.74293 0.184767C7.87952 0.303891 7.96835 0.468446 7.993 0.648L8 0.75V4.75C8 6.703 6.6 8.328 4.75 8.68V16.75C4.74994 16.94 4.67776 17.1229 4.54803 17.2618C4.4183 17.4006 4.2407 17.4851 4.05112 17.498C3.86154 17.511 3.67411 17.4515 3.5267 17.3316C3.37929 17.2117 3.2829 17.0402 3.257 16.852L3.25 16.75V8.68C2.37077 8.5119 1.57328 8.05387 0.985023 7.37914C0.396765 6.70441 0.0517037 5.85194 0.00500011 4.958L0 4.75V0.75C5.82426e-05 0.559977 0.0722443 0.377059 0.201972 0.238208C0.331701 0.0993575 0.509299 0.0149261 0.69888 0.00197411C0.888462 -0.0109779 1.07589 0.0485152 1.2233 0.168432C1.37071 0.28835 1.4671 0.45975 1.493 0.648L1.5 0.75V4.75C1.5 5.87 2.236 6.817 3.25 7.136V0.75C3.25006 0.559977 3.32224 0.377059 3.45197 0.238208C3.5817 0.0993575 3.7593 0.0149261 3.94888 0.00197411C4.13846 -0.0109779 4.32589 0.0485152 4.4733 0.168432C4.62071 0.28835 4.7171 0.45975 4.743 0.648L4.75 0.75V7.135C5.2272 6.98461 5.64834 6.6946 5.95905 6.30243C6.26975 5.91026 6.45575 5.43395 6.493 4.935L6.5 4.75V0.75C6.5 0.551088 6.57902 0.360322 6.71967 0.21967C6.86032 0.0790175 7.05109 0 7.25 0ZM12.5 10.25V1.628C12.0889 1.77349 11.7289 2.0352 11.4637 2.38135C11.1985 2.72751 11.0395 3.14322 11.006 3.578L11 3.75V10.25H12.5V1.628V10.25Z" fill="white"/>
</svg>
